<svg xmlns="http://www.w3.org/2000/svg" width="129" height="25" fill="none"><g fill="#FF8E6C" clip-path="url(#a)"><path d="M5.103.5h-1.5a3 3 0 0 0-3 3V5a7.5 7.5 0 0 1 0 15v1.5a3 3 0 0 0 3 3h1.5a7.5 7.5 0 0 1 15 0h1.5a3 3 0 0 0 3-3V20a7.5 7.5 0 0 1 0-15V3.5a3 3 0 0 0-3-3h-1.5a7.5 7.5 0 1 1-15 0Z"/><path d="M8.103.5h9a4.5 4.5 0 1 1-9 0ZM24.602 8a4.5 4.5 0 0 0 0 9V8Zm-7.5 16.5a4.5 4.5 0 1 0-9 0h9ZM.603 17a4.5 4.5 0 1 0 0-9v9Z"/></g><path fill="#030303" d="M32.602 22.188V2.812h3.558v8.609l7.325-8.609h4.474l-6.75 7.959 6.985 11.417h-4.186l-5.232-8.53-2.616 3.094v5.436h-3.557ZM50.07 6.453v-3.64h3.427v3.64H50.07Zm0 15.735V8.04h3.427v14.148H50.07Zm6.591 0V8.04h3.218v1.742a3.737 3.737 0 0 1 1.622-1.534c.715-.347 1.517-.52 2.407-.52 1.046 0 1.97.225 2.773.676a4.778 4.778 0 0 1 1.91 1.898c.453.798.68 1.726.68 2.783v9.103h-3.427V13.89c0-.936-.27-1.673-.811-2.21-.524-.555-1.212-.832-2.067-.832-.855 0-1.552.277-2.093.832-.523.555-.785 1.292-.785 2.21v8.297h-3.427Zm22.126.312c-1.378 0-2.607-.32-3.689-.962a7.216 7.216 0 0 1-2.563-2.653c-.628-1.127-.942-2.384-.942-3.771s.314-2.636.942-3.745a6.963 6.963 0 0 1 2.563-2.653c1.1-.659 2.32-.988 3.663-.988 1.848 0 3.305.58 4.369 1.742V2.5h3.427v19.688h-3.244v-1.56a5.206 5.206 0 0 1-1.962 1.404 6.876 6.876 0 0 1-2.564.468Zm.366-3.12c.768 0 1.448-.183 2.04-.547a3.693 3.693 0 0 0 1.413-1.509c.35-.641.524-1.378.524-2.21 0-.833-.175-1.57-.524-2.21a3.694 3.694 0 0 0-1.412-1.51c-.593-.363-1.273-.546-2.04-.546-.768 0-1.457.191-2.067.573-.61.364-1.09.867-1.44 1.508-.33.642-.496 1.37-.496 2.185s.165 1.552.497 2.21a3.875 3.875 0 0 0 1.439 1.509c.61.364 1.299.546 2.066.546Zm17.551 3.12c-1.396 0-2.669-.32-3.82-.962a7.437 7.437 0 0 1-2.72-2.627c-.663-1.11-.995-2.376-.995-3.797 0-1.422.332-2.688.994-3.797a7.438 7.438 0 0 1 2.721-2.627c1.134-.642 2.407-.962 3.82-.962 1.395 0 2.66.32 3.793.962a7.232 7.232 0 0 1 2.694 2.627c.68 1.11 1.021 2.375 1.021 3.797 0 1.421-.341 2.696-1.021 3.823a7.438 7.438 0 0 1-2.72 2.627c-1.134.624-2.39.936-3.767.936Zm0-3.12c.767 0 1.438-.183 2.014-.547a3.746 3.746 0 0 0 1.386-1.509c.349-.658.524-1.395.524-2.21s-.175-1.543-.524-2.185a3.746 3.746 0 0 0-1.386-1.508c-.576-.382-1.247-.572-2.014-.572-.768 0-1.457.19-2.067.572a3.939 3.939 0 0 0-1.413 1.508c-.331.642-.497 1.37-.497 2.185s.166 1.552.497 2.21c.349.642.82 1.145 1.413 1.509.61.364 1.3.546 2.067.546Zm10.106 2.808V8.04h3.218v2.002c.366-.815.881-1.378 1.544-1.69.662-.312 1.43-.468 2.302-.468h.837V10.9h-1.23c-.959 0-1.744.304-2.354.91-.593.59-.89 1.423-.89 2.497v7.88h-3.427Zm14.101.312c-1.482 0-2.668-.364-3.557-1.092-.89-.729-1.335-1.717-1.335-2.965 0-1.18.402-2.159 1.204-2.94.802-.78 2.04-1.308 3.715-1.586l4.238-.676v-.468c0-.607-.245-1.11-.733-1.508-.471-.417-1.099-.625-1.884-.625-.749 0-1.403.2-1.962.599a3.347 3.347 0 0 0-1.229 1.534l-2.799-1.352c.418-1.11 1.186-2.003 2.302-2.68 1.116-.675 2.389-1.013 3.819-1.013 1.169 0 2.189.216 3.061.65.89.416 1.587 1.005 2.093 1.768.506.763.759 1.639.759 2.627v9.415h-3.244V20.68c-1.117 1.213-2.599 1.82-4.448 1.82Zm-1.334-4.187c0 .485.183.875.55 1.17.366.277.837.416 1.412.416 1.082 0 1.954-.338 2.616-1.014.68-.676 1.021-1.5 1.021-2.47v-.573l-3.584.598c-1.343.26-2.015.884-2.015 1.873Z"/><defs><clipPath id="a"><path fill="#fff" d="M.603.5h24v24h-24z"/></clipPath></defs></svg>