<svg xmlns="http://www.w3.org/2000/svg" width="55" height="55" fill="none"><g clip-path="url(#a)"><circle cx="28" cy="27" r="20" fill="#030303"/><path fill="#fff" d="M27.5 0C12.312 0 0 12.312 0 27.5S12.312 55 27.5 55 55 42.688 55 27.5C54.984 12.319 42.68.016 27.5 0Zm11.58 28.376c-.19.382-.5.692-.882.882v.01l-15.714 7.857a1.964 1.964 0 0 1-2.842-1.768V19.643a1.964 1.964 0 0 1 2.842-1.758L38.2 25.742a1.964 1.964 0 0 1 .882 2.634Z"/></g><defs><clipPath id="a"><path fill="#fff" d="M0 0h55v55H0z"/></clipPath></defs></svg>