<svg xmlns="http://www.w3.org/2000/svg" width="154" height="30" fill="none"><path fill="#060E1F" d="M132.396 24.551V10.617h3.228v1.916c1.076-1.181 2.651-2.178 4.776-2.178 2.336 0 3.254.918 3.805 2.282 1.103-1.207 2.756-2.283 4.881-2.283 2.835 0 4.068 1.706 4.068 4.2v9.997h-3.228v-9.184c0-1.549-.446-2.257-1.968-2.257-1.312 0-2.362.735-3.569 1.81v9.631h-3.228v-9.184c0-1.549-.446-2.257-1.968-2.257-1.286 0-2.362.735-3.569 1.81v9.631h-3.228Zm-11.009.21c-2.256 0-3.936-1.26-3.936-3.569 0-3.017 2.572-5.038 9.08-5.773V15c0-1.39-.735-1.994-2.283-1.994-1.942 0-3.517.945-4.697 1.89l-1.575-2.021c1.496-1.365 3.831-2.52 6.718-2.52 3.726 0 5.012 1.785 5.012 5.039v5.747c0 1.68.105 2.703.394 3.411h-3.254c-.184-.577-.315-.997-.315-1.784-1.417 1.443-3.07 1.994-5.144 1.994Zm1.181-2.493c1.654 0 2.939-.63 3.963-1.6v-3.07c-3.858.524-5.905 1.469-5.905 2.99 0 1.103.761 1.68 1.942 1.68Zm-13.814 2.283V10.617h3.228V12.9h.052c.866-1.39 2.362-2.546 5.012-2.546h.21l-.105 2.966a9.032 9.032 0 0 0-.866-.053c-2.073 0-3.385.971-4.303 2.467v8.817h-3.228Zm-9.366 5.406c-4.802 0-6.718-1.39-6.718-3.411 0-1.391.866-2.388 2.283-2.94-.709-.367-1.076-.944-1.076-1.705 0-1.05.84-1.916 1.89-2.546-1.418-.892-2.205-2.309-2.205-4.014 0-2.86 2.204-4.986 5.852-4.986 1.916 0 3.333.63 4.278 1.469.892-.708 2.309-1.26 3.463-1.364v2.624c-.629 0-1.522.078-2.44.367.315.499.499 1.155.499 1.89 0 2.912-2.178 4.96-5.8 4.96-.787 0-1.26-.106-1.942-.29-.42.237-.708.525-.708.893 0 .55.367.735 1.6.84l2.467.157c4.12.262 5.747 1.364 5.747 3.805 0 2.86-2.886 4.251-7.19 4.251Zm.079-11.887c1.758 0 2.807-.919 2.807-2.625 0-1.732-.997-2.676-2.834-2.676-1.784 0-2.834.97-2.834 2.676 0 1.706 1.076 2.625 2.86 2.625Zm.42 9.552c2.361 0 3.831-.63 3.831-1.627 0-.998-.709-1.365-3.543-1.549l-2.414-.157c-.289 0-.551-.026-.84-.079-.918.42-1.286 1.076-1.286 1.785 0 1.233 1.417 1.627 4.251 1.627Zm-10.14-2.885c-3.542 0-4.303-1.313-4.303-3.832V13.19h-2.415v-2.572h2.415V5.764h3.227v4.854h3.595v2.572h-3.595v6.902c0 1.496.446 2.1 2.047 2.1.473 0 1.076-.08 1.391-.184v2.545c-.341.079-1.548.184-2.362.184Zm-13.225-.185V13.189h-2.415v-2.572h2.415V9.2c0-2.336.97-4.146 4.513-4.146.604 0 1.68.105 1.916.13v2.494c-.21-.053-.735-.105-1.102-.105-1.155 0-2.1.315-2.1 1.81v1.234h3.044v2.572H79.75v11.363h-3.227Zm-12.215.209c-2.256 0-3.936-1.26-3.936-3.569 0-3.017 2.572-5.038 9.08-5.773V15c0-1.39-.735-1.994-2.283-1.994-1.942 0-3.517.945-4.698 1.89l-1.574-2.021c1.496-1.365 3.831-2.52 6.718-2.52 3.726 0 5.012 1.785 5.012 5.039v5.747c0 1.68.105 2.703.394 3.411h-3.254c-.184-.577-.315-.997-.315-1.784-1.417 1.443-3.07 1.994-5.144 1.994Zm1.181-2.493c1.653 0 2.94-.63 3.963-1.6v-3.07c-3.858.524-5.905 1.469-5.905 2.99 0 1.103.761 1.68 1.942 1.68Zm-13.816 2.283V10.617H54.9V12.9h.052c.866-1.39 2.362-2.546 5.012-2.546h.21l-.105 2.966a9.046 9.046 0 0 0-.866-.053c-2.073 0-3.385.971-4.303 2.467v8.817h-3.228Zm-10.046.369c-4.986 0-8.528-3.438-8.528-10.13 0-6.508 3.647-10.024 8.528-10.024 4.514 0 6.666 2.493 7.532 6.035l-3.123.893C45.3 9.122 44.172 7.81 41.6 7.81c-3.28 0-5.196 2.545-5.196 6.954 0 4.618 1.968 7.164 5.248 7.164 2.52 0 3.937-1.26 4.672-4.173l3.122.709c-.944 3.858-3.332 6.456-7.82 6.456Z"/><g fill="#F36565" clip-path="url(#a)"><path d="M13.711.813v13.121L7.988 8.21a2.881 2.881 0 0 1-.836-2.015V.813h6.559ZM26.84 13.937H13.715l5.73-5.725a2.821 2.821 0 0 1 2.045-.836h5.38l-.03 6.56Z"/><path d="M13.715 27.056V13.935l5.723 5.732a2.814 2.814 0 0 1 .835 2.045v5.38l-6.558-.036Z"/><path d="M.598 13.935h13.117l-5.723 5.724a2.85 2.85 0 0 1-2.015.836H.597v-6.56Z"/></g><defs><clipPath id="a"><path fill="#fff" d="M.598.81H26.84v26.242H.598z"/></clipPath></defs></svg>