<svg xmlns="http://www.w3.org/2000/svg" width="97" height="27" fill="none"><path fill="#060E1F" d="m69.912 11.908-1.338 8.477c-.046.32-.069.56-.069.72 0 1.305.8 1.957 2.402 1.957.572 0 1.19-.058 1.854-.172l-.584 3.603c-.87.183-1.796.275-2.78.275-1.921 0-3.317-.47-4.186-1.407-.87-.938-1.304-2.15-1.304-3.638 0-.457.034-.926.102-1.407l1.305-8.408h-3.158l.584-3.672h3.157l.72-4.53h4.6l-.721 4.53h3.98l-.583 3.672h-3.98Z"/><path fill="#060E1F" d="M62.376 3.465c-1.647 0-2.597.858-2.848 2.574l-.343 2.196h3.74l-.583 3.673h-3.74l-2.335 14.516h-4.564l2.334-14.516h-3.055l.584-3.673h3.054l.378-2.402c.251-1.67.926-3.054 2.024-4.152C58.121.56 59.757-.001 61.93-.001a8.58 8.58 0 0 1 2.334.309l-.515 3.329a6.244 6.244 0 0 0-1.373-.172ZM48.948 5.524c-.8 0-1.464-.263-1.99-.79a2.616 2.616 0 0 1-.79-1.921c0-.755.264-1.385.79-1.888.526-.526 1.19-.79 1.99-.79.778 0 1.43.264 1.956.79.55.526.824 1.155.824 1.888a2.56 2.56 0 0 1-.824 1.921c-.526.527-1.178.79-1.956.79Zm-1.476 20.9h-4.564l2.917-18.19h4.565l-2.918 18.19Zm-12.835-6.006 5.491-12.183h4.839l-8.648 18.19h-4.84l-1.75-11.67-5.422 11.67h-4.873l-2.78-18.19h4.462l1.578 12.286L28.46 8.235h4.324l1.853 12.183Zm-26.763 6.35c-2.448 0-4.313-.584-5.594-1.75C1.022 23.85.312 22.42.152 20.727H4.58c.115.709.458 1.304 1.03 1.784.595.48 1.441.72 2.54.72.96 0 1.693-.194 2.196-.582.526-.39.79-.87.79-1.442 0-.503-.184-.892-.55-1.167-.343-.297-.858-.537-1.544-.72l-2.23-.618C3.63 17.81 2.04 16.14 2.04 13.693a5.29 5.29 0 0 1 .823-2.883c.572-.893 1.396-1.602 2.471-2.128 1.076-.526 2.357-.79 3.844-.79 2.22 0 3.912.538 5.08 1.614 1.189 1.075 1.898 2.39 2.127 3.946h-4.256c-.137-.595-.469-1.087-.995-1.476-.526-.411-1.258-.617-2.196-.617-.847 0-1.51.194-1.99.583-.458.366-.687.835-.687 1.407 0 .824.652 1.43 1.956 1.82l2.128.617c1.51.366 2.734.984 3.672 1.853.938.846 1.407 1.956 1.407 3.329a5.206 5.206 0 0 1-.892 2.951c-.595.87-1.464 1.567-2.608 2.094-1.144.503-2.494.755-4.05.755Z"/><path fill="#09DE38" d="M87.283 26.253h-7.402v-1.338a8.85 8.85 0 0 1 8.813-7.809 8.85 8.85 0 0 1-8.813-7.829V7.944h7.402v.276a8.876 8.876 0 0 0 8.876 8.85 8.88 8.88 0 0 0-8.85 8.876.941.941 0 0 0-.026.307Z"/></svg>