<svg xmlns="http://www.w3.org/2000/svg" width="68" height="13" fill="none"><path fill="#505050" d="M4.388 12.586h2.703L9.57 5.917l2.454 6.67h2.753L19.165.412h-3.769l-2.008 6.67-2.454-6.67H8.206l-2.43 6.67L3.745.412H0l4.388 12.173ZM28.355.413v1.735C27.512.884 26.198.165 24.487.165c-3.148 0-5.653 2.826-5.653 6.322s2.505 6.347 5.653 6.347c1.71 0 3.025-.719 3.868-1.983v1.735h3.496V.413h-3.496Zm-3.05 9.074c-1.686 0-3.05-1.314-3.05-3 0-1.66 1.364-3 3.05-3 1.711 0 3.05 1.314 3.05 3 0 1.71-1.339 3-3.05 3ZM45.698.413H41.88l-2.702 7.413L36.426.413h-3.794l5.058 12.173h2.975L45.698.413Zm11.624 5.554c0-3.248-2.579-5.802-5.876-5.802-3.546 0-6.322 2.727-6.322 6.273 0 3.62 2.826 6.396 6.396 6.396 2.529 0 4.562-.942 5.454-2.553l-2.727-1.662c-.421.744-1.562 1.24-2.653 1.24-1.66 0-2.801-.868-3.123-2.529h8.751c.075-.47.1-.942.1-1.363Zm-8.802-.868c.322-1.314 1.29-2.108 2.752-2.108 1.29 0 2.405.893 2.554 2.108H48.52Zm14.485 7.735c2.827 0 4.81-1.636 4.81-3.892-.074-4.364-6.67-3.397-6.694-5.157 0-.546.595-.967 1.488-.967 1.314 0 2.85.545 3.793 1.264l.992-2.529C66.179.587 64.468.165 62.757.165c-2.876 0-4.909 1.76-4.884 4.041.05 4.488 6.595 3.1 6.62 4.959 0 .57-.694.992-1.785.992-1.488 0-2.975-.447-4.116-1.29l-1.041 2.43c1.463 1.041 3.372 1.537 5.454 1.537Z"/></svg>